<?xml version="1.0" encoding="UTF-8"?>
<svg xmlns="http://www.w3.org/2000/svg" version="1.1" viewBox="0 0 103.32 139.37">
  <!-- Generator: Adobe Illustrator 30.0.0, SVG Export Plug-In . SVG Version: 2.1.1 Build 123)  -->
  <defs>
    <style>
      .st0 {
        stroke: #000;
      }

      .st0, .st1 {
        stroke-miterlimit: 10;
        stroke-width: 2px;
      }

      .st1 {
        fill: #ccc;
        stroke: #b3b3b3;
      }
    </style>
  </defs>
  <g id="Layer_3">
    <path class="st1" d="M102.32,43.91c0-7.5-5.64-13.67-12.91-14.53.57-1.89.89-3.89.89-5.96,0-11.32-9.18-20.49-20.49-20.49-5.44,0-10.37,2.13-14.04,5.59-4.23-4.62-10.31-7.51-17.07-7.51-12.72,0-23.05,10.26-23.15,22.96-.17,0-.34-.03-.52-.03-7.75,0-14.04,6.28-14.04,14.04,0,4.8,2.41,9.04,6.09,11.57-2.33,3.61-3.68,7.91-3.68,12.52,0,12.79,10.37,23.15,23.15,23.15.72,0,1.42-.04,2.12-.1.46,9.18,8.03,16.48,17.32,16.48,7.47,0,13.82-4.73,16.27-11.35,3.44,2.47,7.62,4.01,12.17,4.2,12.44.53,22.95-9.12,23.49-21.56.25-5.78-1.71-11.14-5.11-15.28,5.55-2.08,9.51-7.42,9.51-13.7Z"/>
    <circle class="st1" cx="59.89" cy="132.6" r="5.77"/>
    <path class="st1" d="M58.22,110.9c-.83-3.33-4.21-5.35-7.53-4.52-1.53.38-2.79,1.31-3.61,2.52-1.13-.17-2.31-.12-3.49.17-4.83,1.21-7.76,6.1-6.55,10.93s6.1,7.76,10.93,6.55c4.01-1,6.71-4.56,6.81-8.5,2.67-1.22,4.19-4.2,3.45-7.16Z"/>
  </g>
  <g id="Layer_5">
    <path class="st0" d="M81.67,50.78v-11.56l-14.61-8.85c-.33.02-.66.03-.99.03-5.67,0-10.27-2.51-10.27-5.6,0-.38.07-.76.21-1.12l-5.52-3.34-23.94,3.98v41.76l7.55,2.22c1.15-2.86,3.96-4.89,7.23-4.89,4.31,0,7.8,3.49,7.8,7.8,0,.5-.05.99-.14,1.46l32.67,9.6v-15.65c-3.18-1.12-5.47-4.24-5.47-7.91s2.29-6.79,5.47-7.91Z"/>
  </g>
</svg>