<?xml version="1.0" encoding="UTF-8"?>
<svg xmlns="http://www.w3.org/2000/svg" version="1.1" viewBox="0 0 103.32 139.38">
  <!-- Generator: Adobe Illustrator 30.0.0, SVG Export Plug-In . SVG Version: 2.1.1 Build 123)  -->
  <defs>
    <style>
      .st0 {
        stroke-linecap: round;
      }

      .st0, .st1 {
        stroke: #000;
      }

      .st0, .st1, .st2 {
        stroke-miterlimit: 10;
      }

      .st2 {
        fill: #ccc;
        stroke: #b3b3b3;
        stroke-width: 2px;
      }
    </style>
  </defs>
  <g id="Layer_3">
    <path class="st2" d="M102.32,43.91c0-7.5-5.64-13.67-12.91-14.53.57-1.89.89-3.89.89-5.96,0-11.32-9.18-20.49-20.49-20.49-5.44,0-10.37,2.13-14.04,5.59-4.23-4.62-10.31-7.51-17.07-7.51-12.72,0-23.05,10.26-23.15,22.96-.17,0-.34-.03-.52-.03-7.75,0-14.04,6.28-14.04,14.04,0,4.8,2.41,9.04,6.09,11.57-2.33,3.61-3.68,7.91-3.68,12.52,0,12.79,10.37,23.15,23.15,23.15.72,0,1.42-.04,2.12-.1.46,9.18,8.03,16.48,17.32,16.48,7.47,0,13.82-4.73,16.27-11.35,3.44,2.47,7.62,4.01,12.17,4.2,12.44.53,22.95-9.12,23.49-21.56.25-5.78-1.71-11.14-5.11-15.28,5.55-2.08,9.51-7.42,9.51-13.7Z"/>
    <circle class="st2" cx="59.89" cy="132.6" r="5.77"/>
    <path class="st2" d="M58.22,110.9c-.83-3.33-4.21-5.35-7.53-4.52-1.53.38-2.79,1.31-3.61,2.52-1.13-.17-2.31-.12-3.49.17-4.83,1.21-7.76,6.1-6.55,10.93s6.1,7.76,10.93,6.55c4.01-1,6.71-4.56,6.81-8.5,2.67-1.22,4.19-4.2,3.45-7.16Z"/>
  </g>
  <g id="food1-silhouette">
    <path class="st1" d="M49.96,30.63c-4.26-1.7-9.01-1.83-13.31-.2-3.54,1.34-7.38,3.74-9.92,8.07-5.81,9.93-2.06,21.35-2.06,21.35,0,0,5.62,18.16,20.6,19.66,7.02.7,10.55-.2,12.31-1.36,1.63-1.07,3.54-1.71,5.48-1.47,2.48.3,6.18-.26,11.05-3.72,4.24-3.02,5.93-8.53,6.48-13.78.94-8.98-1.71-18.05-7.46-25.01-3.48-4.23-8.17-7.87-13.82-7.46,0,0-7.48,0-9.36,3.93h0Z"/>
    <path class="st1" d="M49.19,32.2s-1.87-7.49,3.93-10.86l2.81,2.81c.57.73-5.18,4.4-6.74,8.05Z"/>
    <path class="st0" d="M48.72,34.76s-.19-16.29-13.86-17.04-12.36-1.28-12.22-.94c1.83,4.64,2.63,7.92,3.84,11.34,1.15,3.24,6.54,13.14,22.24,6.63Z"/>
  </g>
</svg>