<?xml version="1.0" encoding="UTF-8"?>
<svg id="Layer_6" xmlns="http://www.w3.org/2000/svg" version="1.1" xmlns:xlink="http://www.w3.org/1999/xlink" viewBox="0 0 76.89 69.2">
  <!-- Generator: Adobe Illustrator 30.0.0, SVG Export Plug-In . SVG Version: 2.1.1 Build 123)  -->
  <defs>
    <style>
      .st0 {
        stroke-width: .68px;
      }

      .st0, .st1, .st2, .st3, .st4 {
        stroke-miterlimit: 10;
      }

      .st0, .st2, .st3 {
        fill: #cafffd;
        stroke: #cafffd;
      }

      .st1 {
        fill: none;
        stroke-linecap: round;
      }

      .st1, .st4 {
        stroke: #5482a1;
        stroke-width: 2px;
      }

      .st2 {
        stroke-width: 1.26px;
      }

      .st3 {
        stroke-width: .86px;
      }

      .st5 {
        fill: #fb7d17;
      }

      .st6 {
        fill: #ed1c24;
      }

      .st4 {
        fill: url(#linear-gradient);
      }
    </style>
    <linearGradient id="linear-gradient" x1="38.44" y1="67.92" x2="38.44" y2="1.28" gradientUnits="userSpaceOnUse">
      <stop offset="0" stop-color="#5482a1"/>
      <stop offset="1" stop-color="#cafffd"/>
    </linearGradient>
  </defs>
  <path class="st4" d="M12.62,1.28h49.64c1.39,0,2.47,1.08,2.58,2.37.04.52-.18,1.03-.52,1.43l-.86,1.03c-.92,1.1-.55,2.74.73,3.39,4.11,2.08,11.42,8.24,11.42,25.78,0,24.78-8.77,32.65-37.39,32.65-27.66,0-36.95-10.08-36.94-32.7,0-18.6,6.04-23.77,10.41-25.73,1.4-.63,1.71-2.48.61-3.56l-1.07-1.05c-.81-.8-.96-2.16-.16-2.97.39-.39.92-.64,1.54-.64Z"/>
  <path class="st1" d="M12.07,3.25s13.68,2,26.14,2c10.72,0,25.57-2,25.57-2"/>
  <g>
    <circle cx="21.49" cy="40.73" r="1.96"/>
    <path class="st6" d="M52.44,43.09c.56-1.19,1.35-2.24,2.39-3.06.48-.38,1.02-.7,1.57-.97.24-.12.49-.22.74-.31.15-.05.3-.1.46-.14.19-.05.76-.07.2-.15l-.53-.31.08.06-.35-.85v.14c.06-.2.12-.41.17-.61-.6,1.13-1.82,2.04-2.86,2.74-1.2.81-2.49,1.47-3.78,2.12-.97.49-.65,1.92.29,2.21,1.1.33,2.14.79,3.13,1.38.46.28.91.57,1.33.9.12.1.98.94,1.01.93,0,0,.19-.3.19-.27,0-.04-.01,0-.14-.01-.1-.01-.19-.03-.29-.06-.52-.15-.98-.48-1.42-.77-1.08-.71-2.09-1.49-3.05-2.35v1.71c.1-.09,1.08.65,1.22.76.67.49,1.32,1.02,1.96,1.55.51.41,1.21.49,1.71,0,.43-.43.51-1.29,0-1.71-1.01-.82-2.01-1.67-3.1-2.38s-2.49-.88-3.5.08c-.46.43-.48,1.28,0,1.71,1.33,1.19,2.78,2.35,4.34,3.23,1.39.77,3.95,1.18,4.44-.9.43-1.81-1.37-3.04-2.64-3.93-1.38-.96-2.94-1.68-4.55-2.17l.29,2.21c1.6-.8,3.19-1.64,4.62-2.72,1.05-.8,4.54-3.58,2.36-4.86-.77-.45-1.92.04-2.68.34-.84.34-1.64.75-2.37,1.29-1.41,1.04-2.58,2.39-3.33,3.98-.28.59-.17,1.3.43,1.65.52.31,1.37.16,1.65-.43h0Z"/>
    <path class="st6" d="M33.43,39.25c0-.14,0-.12-.03.05.01-.06.03-.12.05-.17-.06.19-.03.09.05-.03-.15.23,0,.01.06-.04.05-.04.1-.09.15-.13-.11.09-.12.09,0,.02.17-.09.34-.2.51-.28.08-.03.15-.07.23-.1-.08.03-.08.04,0,0,.13-.05.27-.1.41-.15.51-.18,1.03-.31,1.56-.4.08-.01.16-.03.24-.04-.1.01-.1.01-.01,0,.14-.02.29-.03.43-.04.27-.02.54-.03.8-.03.13,0,.26,0,.4,0,.24,0-.21-.08.03.01-.21-.09-.34-.26-.42-.47-.05-.19-.03-.37.07-.53.11-.12.11-.13.02-.03-.16.16.15-.05-.08.05-.06.03-.28.13-.09.05-.27.11-.55.2-.83.29-.52.16-1.05.29-1.59.39s-.89.13-1.56.16c-.63.02-1.24.54-1.21,1.21.03.63.53,1.23,1.21,1.21,1.24-.05,2.48-.24,3.67-.6s2.76-.91,2.79-2.4c.02-.81-.63-1.47-1.37-1.67-.56-.15-1.19-.11-1.76-.07-1.26.09-2.48.37-3.65.86-1.22.52-2.5,1.39-2.46,2.88.02.63.54,1.24,1.21,1.21s1.22-.53,1.21-1.21h0Z"/>
    <ellipse class="st5" cx="35.23" cy="43.28" rx="16.35" ry="4.27"/>
    <circle cx="27.32" cy="40.73" r="1.96"/>
    <path class="st6" d="M32.69,46.75c.26.68.66,1.16,1.26,1.58.47.33,1.02.54,1.55.76,1.11.46,2.27.79,3.46.99.68.11,1.35.22,1.99-.12.83-.45,1.04-1.47.65-2.28-.57-1.17-2.25-1.28-3.38-1.51-.6-.12-1.21-.25-1.79-.42-.14-.04-.28-.09-.42-.14-.07-.02-.14-.05-.21-.08-.09-.03-.13-.05-.02,0-.3-.14-.59-.29-.87-.47-.53-.34-1.36-.13-1.65.43-.32.6-.13,1.29.43,1.65.99.64,2.14.98,3.28,1.23.55.12,1.1.22,1.65.34.29.06.58.16.87.21.13.05.14.04.02,0,.12.07.13.07.02-.01-.05-.06-.09-.13-.12-.21-.07-.31,0-.54.21-.71.07-.1.16-.17.28-.2-.13.03-.11.03.07,0,0,.03-.48-.05-.14,0-.3-.04-.6-.1-.9-.16-.6-.13-1.19-.29-1.77-.48-.63-.21-.94-.33-1.46-.59-.1-.05-.2-.1-.3-.16-.05-.03-.38-.27-.15-.08-.1-.08-.19-.17-.27-.26.09.12.1.13.03.02-.06-.12-.06-.11,0,.03-.23-.59-.82-1.06-1.49-.84-.57.19-1.09.85-.84,1.49h0Z"/>
  </g>
  <circle class="st2" cx="53.06" cy="24.29" r="2.84"/>
  <circle class="st3" cx="46.45" cy="16.39" r="1.92"/>
  <circle class="st0" cx="45.63" cy="33.12" r="1.52"/>
</svg>