<?xml version="1.0" encoding="UTF-8"?>
<svg id="food1" xmlns="http://www.w3.org/2000/svg" version="1.1" xmlns:xlink="http://www.w3.org/1999/xlink" viewBox="0 0 60.23 65.08">
  <!-- Generator: Adobe Illustrator 30.0.0, SVG Export Plug-In . SVG Version: 2.1.1 Build 123)  -->
  <defs>
    <style>
      .st0 {
        fill: #1b5727;
        stroke: #123518;
        stroke-linecap: round;
      }

      .st0, .st1, .st2 {
        stroke-miterlimit: 10;
        stroke-width: 2px;
      }

      .st1 {
        fill: url(#linear-gradient);
        stroke: #89000a;
      }

      .st2 {
        fill: #89000a;
        stroke: #6b1305;
      }

      .st3 {
        fill: #f4d9b3;
      }
    </style>
    <linearGradient id="linear-gradient" x1="30.59" y1="64.08" x2="30.59" y2="10.99" gradientUnits="userSpaceOnUse">
      <stop offset="0" stop-color="#ff1600"/>
      <stop offset="1" stop-color="#df7000"/>
    </linearGradient>
  </defs>
  <path class="st1" d="M28.41,14.96c-4.26-1.7-9.01-1.83-13.31-.2-3.54,1.34-7.38,3.74-9.92,8.07-5.81,9.93-2.06,21.35-2.06,21.35,0,0,5.62,18.16,20.6,19.66,7.02.7,10.55-.2,12.31-1.36,1.63-1.07,3.54-1.71,5.48-1.47,2.48.3,6.18-.26,11.05-3.72,4.24-3.02,5.93-8.53,6.48-13.78.94-8.98-1.71-18.05-7.46-25.01-3.48-4.23-8.17-7.87-13.82-7.46,0,0-7.48,0-9.36,3.93h0Z"/>
  <path class="st2" d="M27.65,16.52s-1.87-7.49,3.93-10.86l2.81,2.81c.57.73-5.18,4.4-6.74,8.05Z"/>
  <path class="st0" d="M27.17,19.08s-.19-16.29-13.86-17.04S.96.76,1.09,1.11c1.83,4.64,2.63,7.92,3.84,11.34,1.15,3.24,6.54,13.14,22.24,6.63Z"/>
  <ellipse class="st3" cx="46.08" cy="20.29" rx="2.5" ry="3.83" transform="translate(-3.03 31.39) rotate(-36.5)"/>
  <ellipse class="st3" cx="43.04" cy="24.89" rx="1.11" ry="2.52" transform="translate(-6.36 30.49) rotate(-36.5)"/>
</svg>