<?xml version="1.0" encoding="UTF-8"?>
<svg xmlns="http://www.w3.org/2000/svg" viewBox="0 0 1080 1080">
  <defs>
    <style>
      .cls-1 {
        fill: #d6d5c8;
      }

      .cls-2 {
        fill: #fcfcfc;
      }

      .cls-3 {
        fill: #686868;
      }

      .cls-4 {
        fill: #8c8b84;
      }
    </style>
  </defs>
  <g id="Body">
    <g>
      <path class="cls-2" d="M413.551,860.198c19.964-39.375,40.557-73.639,53.382-110.296,13.276-37.945,59.663-38.043,78.338-6.522,18.675,31.522,46.61,80.916,56.348,95.652,12.231,18.507,30.438,41.235,58.699,81.452,30.081,42.807,135.503,26.18,135.84-18.46.56-74.199,49.887-498.583-74.971-651.036-107.466-131.217-320.402-134.281-421.925-10.87-50.095,60.896-53.6,248.913-56.348,295.652-2.749,46.739-2.749,158.696-5.497,210.87-2.079,39.455-.102,48.037,3.167,138.022.941,25.914,42.744,60.72,90.894,58.213,37.669-1.961,82.074-82.678,82.074-82.678Z"/>
      <path class="cls-3" d="M412.236,859.503c18.434-36.702,39.471-72.17,53.152-110.985,1.192-3.346,2.801-6.545,4.643-9.601,9.545-15.824,28.685-23.473,46.546-19.109,14.069,3.126,25.706,13.316,32.274,25.879,16.147,27.287,35.47,61.763,52.004,88.662,7.301,11.502,15.574,22.474,23.639,33.487,13.308,17.801,26.187,36.017,39.211,54.021,20.368,23.884,61.053,25.076,89.336,17.487,15.526-4.4,32.555-12.235,39.371-27.717,1.229-2.974,1.844-6.162,1.925-9.366.093-6.879.414-13.766.769-20.616,10.032-174.581,30.764-452.595-58.094-605.77-35.929-58.314-96.958-98.92-162.873-115.588-96.852-24.97-210.188,1.854-274.354,81.467-4.105,5.186-7.905,11.187-10.959,17.051-13.325,25.78-20.276,54.382-25.943,82.722-7.76,40.348-11.78,81.309-14.597,122.284-1.912,26.431-2.861,55.558-4.327,82.124-2.643,67.989-1.867,137.697-5.122,205.623-1.501,27.373.262,54.711,1.406,82.077,0,0,1.688,41.112,1.688,41.112.347,6.678-.12,13.387,2.61,19.674,7.939,18.473,26.004,31.397,44.037,39.118,13.923,5.776,29.324,8.69,44.372,7.485,0,0,1.204-.135,1.204-.135l.602-.068.595-.14c30.248-6.687,61.851-55.19,76.887-81.177h0ZM414.865,860.892c-15.465,26.629-39.607,63.044-66.445,78.315-6.085,3.511-13.395,5.579-20.393,5.45-13.948.273-27.915-2.576-40.78-7.916-20.49-8.387-46.345-27.886-48.348-51.563-.961-36.219-3.937-77.125-3.988-113.152.287-20.593,1.82-41.113,2.199-61.696,1.474-53.913,1.645-110.574,3.743-164.532,1.549-26.603,2.473-55.695,4.413-82.192,2.863-41.069,6.94-82.166,14.765-122.633,5.371-26.963,12.028-53.928,23.952-78.866,0,0,1.111-2.343,1.111-2.343l1.242-2.281c3.121-5.964,7.072-12.201,11.269-17.485,83.28-102.747,243.071-117.079,353.34-50.868,26.677,15.792,50.691,36.121,70.47,60.005,56.379,70.063,72.182,175.235,80.764,262.61,12.026,130.056,2.451,260.558-4.223,390.576-.127,14.874-12.092,26.497-24.453,32.915-32.717,17.43-93.062,18.592-115.817-15.263-11.829-16.817-23.97-33.382-36.206-49.916-8.139-11.103-16.409-22.051-23.814-33.704-12.412-20.034-29.617-50.293-41.719-70.986,0,0-10.389-17.739-10.389-17.739-3.313-5.924-7.109-11.192-12.351-15.431-18.638-15.419-47.04-12.376-59.886,8.77-1.688,2.814-3.179,5.765-4.287,8.885-4.63,12.938-10.037,25.693-16.07,38.041-12.018,24.736-25.656,48.492-38.099,72.998h0Z"/>
    </g>
  </g>
  <g id="Lamp">
    <g>
      <path class="cls-1" d="M288.238,59.318c126.018-46.659,374.188-30.829,444.318,5.682-8.066,99.83,97.359,410,194.38,475-212.426,107.894-718.851,122.894-820.979,1,141.957-111.681,172.234-345.532,182.28-481.682Z"/>
      <path class="cls-4" d="M288.238,59.318c96.679-34.68,233.648-34.969,335.417-22.75,23.347,3.034,46.667,6.906,69.488,12.841,13.994,3.692,28.033,8.031,40.983,14.71-1.649,21.981,1.254,44.137,4.762,65.855,7.333,42.998,18.9,85.224,32.277,126.721,20.341,62.158,44.949,123.202,76.433,180.57,15.911,28.466,33.419,56.37,55.748,80.236,7.998,8.548,16.819,16.273,26.534,22.692-16.604,8.484-33.737,15.883-51.152,22.469-182.254,67.855-496.178,90.865-682.397,32.651-17.903-5.859-35.706-13.073-52.188-22.237-14.985-8.544-29.281-18.891-40.335-32.294,135.674-107.817,170.782-317.82,184.429-481.465h0ZM288.238,59.318c-12.192,166.332-44.167,371.909-181.351,482.861-.001,0,.221-2.143.221-2.143,5.646,6.668,12.197,12.552,19.184,17.847,6.884,5.191,14.63,10.086,22.234,14.133,13.429,7.375,28.009,13.237,42.453,18.359,184.809,60.939,504.717,37.415,686.688-30.517,16.54-6.265,32.817-13.234,48.59-21.196,0,0-.156,2.583-.156,2.583-9.158-6.25-17.404-13.667-24.933-21.682-7.555-8-14.507-16.526-21.047-25.333-38.622-53.276-65.96-113.771-89.88-174.758-23.342-61.303-43.037-124.285-54.312-189.003-3.5-21.66-6.367-43.567-4.869-65.59,0,0,.803,1.451.803,1.451-10.213-5.276-21.626-8.931-32.696-12.206-109.205-29.135-304.454-32.957-410.93,5.194h0Z"/>
    </g>
    <path class="cls-4" d="M851.128,540c-99.027-88.55-148.565-322.916-144.766-452.787.348,9.374.804,21.168,1.409,30.274,4.959,70.428,17.68,140.266,36.689,208.229,20.152,70.826,53.626,162.169,106.668,214.285h0Z"/>
    <path class="cls-4" d="M663.401,574c-87.451-87.036-77.42-323.907-75.928-443.29,0,0,1.63-65.455,1.63-65.455l.339,16.368c.144,9.951.388,38.676.483,49.108,2.224,118.236-8.091,355.438,73.476,443.269h0Z"/>
    <path class="cls-4" d="M375.214,574c81.538-87.792,71.258-324.864,73.477-443.269.076-10.03.351-39.208.482-49.107,0,0,.339-16.369.339-16.369l1.629,65.454c1.479,119.209,11.566,356.19-75.927,443.29h0Z"/>
    <path class="cls-4" d="M191.469,540c94.569-94.393,131.391-292.335,137.206-422.535.284-7.394.724-22.815.836-30.252.539,14.226.609,31.318.274,45.431-3.324,121.257-33.743,273.312-106.303,372.507-6.451,8.325-13.559,16.959-21.007,24.442-3.157,3.388-7.679,7.287-11.005,10.407h0Z"/>
  </g>
</svg>