<?xml version="1.0" encoding="UTF-8"?>
<svg xmlns="http://www.w3.org/2000/svg" version="1.1" viewBox="0 0 1080 1080">
  <!-- Generator: Adobe Illustrator 30.1.0, SVG Export Plug-In . SVG Version: 2.1.1 Build 136)  -->
  <defs>
    <style>
      .st0 {
        fill: #fcfcfc;
      }

      .st1 {
        fill: #fff;
      }

      .st2 {
        fill: #bbefff;
      }

      .st3 {
        stroke: #000;
        stroke-miterlimit: 10;
      }

      .st4 {
        fill: #f5faff;
      }

      .st5 {
        fill: #686868;
      }

      .st6 {
        fill: #9ec4dd;
      }
    </style>
  </defs>
  <g id="Body">
    <g>
      <path class="st0" d="M432.15,852.53c19.96-39.38,40.56-73.64,53.38-110.3,13.28-37.95,59.66-38.04,78.34-6.52,18.67,31.52,46.61,80.92,56.35,95.65,12.23,18.51,30.44,41.23,58.7,81.45,30.08,42.81,135.5,26.18,135.84-18.46.56-74.2,49.89-498.58-74.97-651.04-107.47-131.22-320.4-134.28-421.92-10.87-50.1,60.9-53.6,248.91-56.35,295.65-2.75,46.74-2.75,158.7-5.5,210.87-2.08,39.46-.1,48.04,3.17,138.02.94,25.91,42.74,60.72,90.89,58.21,37.67-1.96,82.07-82.68,82.07-82.68Z"/>
      <path class="st5" d="M430.84,851.84c18.43-36.7,39.47-72.17,53.15-110.98,1.19-3.35,2.8-6.54,4.64-9.6,9.55-15.82,28.69-23.47,46.55-19.11,14.07,3.13,25.71,13.32,32.27,25.88,16.15,27.29,35.47,61.76,52,88.66,7.3,11.5,15.57,22.47,23.64,33.49,13.31,17.8,26.19,36.02,39.21,54.02,20.37,23.88,61.05,25.08,89.34,17.49,15.53-4.4,32.55-12.24,39.37-27.72,1.23-2.97,1.84-6.16,1.93-9.37.09-6.88.41-13.77.77-20.62,10.03-174.58,30.76-452.6-58.09-605.77-35.93-58.31-96.96-98.92-162.87-115.59-96.85-24.97-210.19,1.85-274.35,81.47-4.1,5.19-7.91,11.19-10.96,17.05-13.33,25.78-20.28,54.38-25.94,82.72-7.76,40.35-11.78,81.31-14.6,122.28-1.91,26.43-2.86,55.56-4.33,82.12-2.64,67.99-1.87,137.7-5.12,205.62-1.5,27.37.26,54.71,1.41,82.08,0,0,1.69,41.11,1.69,41.11.35,6.68-.12,13.39,2.61,19.67,7.94,18.47,26,31.4,44.04,39.12,13.92,5.78,29.32,8.69,44.37,7.48,0,0,1.2-.13,1.2-.13l.6-.07.59-.14c30.25-6.69,61.85-55.19,76.89-81.18h0ZM433.47,853.23c-15.47,26.63-39.61,63.04-66.45,78.31-6.08,3.51-13.39,5.58-20.39,5.45-13.95.27-27.92-2.58-40.78-7.92-20.49-8.39-46.35-27.89-48.35-51.56-.96-36.22-3.94-77.13-3.99-113.15.29-20.59,1.82-41.11,2.2-61.7,1.47-53.91,1.65-110.57,3.74-164.53,1.55-26.6,2.47-55.69,4.41-82.19,2.86-41.07,6.94-82.17,14.77-122.63,5.37-26.96,12.03-53.93,23.95-78.87,0,0,1.11-2.34,1.11-2.34l1.24-2.28c3.12-5.96,7.07-12.2,11.27-17.49,83.28-102.75,243.07-117.08,353.34-50.87,26.68,15.79,50.69,36.12,70.47,60.01,56.38,70.06,72.18,175.24,80.76,262.61,12.03,130.06,2.45,260.56-4.22,390.58-.13,14.87-12.09,26.5-24.45,32.91-32.72,17.43-93.06,18.59-115.82-15.26-11.83-16.82-23.97-33.38-36.21-49.92-8.14-11.1-16.41-22.05-23.81-33.7-12.41-20.03-29.62-50.29-41.72-70.99,0,0-10.39-17.74-10.39-17.74-3.31-5.92-7.11-11.19-12.35-15.43-18.64-15.42-47.04-12.38-59.89,8.77-1.69,2.81-3.18,5.77-4.29,8.88-4.63,12.94-10.04,25.69-16.07,38.04-12.02,24.74-25.66,48.49-38.1,73h0Z"/>
    </g>
  </g>
  <g id="Face">
    <path class="st3" d="M358.3,378.66c-41.28,37.6,25.83,101.11,57.7,101.11s57.7-45.27,57.7-101.11-25.83-76.72-57.7-76.72,9.25,15.74-57.7,76.72Z"/>
    <path class="st3" d="M575.83,378.66c0,55.84,25.83,101.11,57.7,101.11s98.49-62.96,57.7-101.11c-74.66-69.83-25.83-76.72-57.7-76.72s-57.7,20.88-57.7,76.72Z"/>
    <g>
      <path class="st1" d="M426.49,319.06c-1.73.25-3.58.8-4.6,2.22-1.18,1.64-.91,3.87-.68,5.89,1.19,10.33-1.12,22.44-10.14,27.61-.85.49-1.77.92-2.46,1.62-2.57,2.6-.79,6.94,1.11,10.07,1.77,2.92,6.87,2,8.64,4.92,1.36,2.25-.57,8.4,1.47,10.07s4.86,2.63,7.36,1.77c1.52-.52,2.75-1.63,4.06-2.57,4.86-3.49,11.33-4.62,17.08-2.98,4.2-7.42,10.22-9.24,10.97-15.4.94-7.74-7.14-8.54-6.8-11.57.74-6.49,4.71-12.64,3.73-19.11-1.69-11.2-20.67-13.86-29.74-12.55Z"/>
      <path class="st1" d="M447.9,386.41c2.96,1.23,5.4-4.07,8.6-3.97,7.04-1.38-1.2,14.19-.1,21.23.35,2.27,1.16,4.48,1.14,6.78-.01.85-.16,1.75-.74,2.37-1,1.07-2.84.81-3.99-.09s-1.83-2.26-2.66-3.47c-1.13-1.66-2.64-3.13-4.52-3.81-1.84-.66-3.88-.52-5.78-1.01s-3.83-2.03-3.63-3.98c.19-1.93,1.53-3.74,1.85-5.73.23-1.46.03-2.98.53-4.39,1.75-5.01,4.77-5.81,9.31-3.93Z"/>
    </g>
    <g>
      <g>
        <ellipse class="st2" cx="357.85" cy="459.45" rx="42.89" ry="26.4"/>
        <path class="st6" d="M400.74,459.45c-.03,9.6-8.07,16.77-16.08,20.76-16.61,8.02-37.13,8.31-53.94.65-10.79-4.89-20.64-16.12-15.27-28.5,5.06-11.01,17.33-16.35,28.55-18.6,13.6-2.53,28.19-1.23,40.66,4.93,8.01,3.99,16.05,11.16,16.08,20.76h0ZM400.74,459.45c-.07-9.58-8.14-16.69-16.2-20.51-16.5-7.53-36.79-7.22-53.06.65-9.75,4.64-19.09,14.88-14.22,26.18,4.78,10.38,16.4,15.55,27.02,18.02,13.33,2.84,27.81,1.97,40.26-3.84,8.07-3.82,16.14-10.93,16.2-20.51h0Z"/>
      </g>
      <path class="st4" d="M393.87,457.87c-.98,4.26-10.51-1.12-23.63-4.15-13.12-3.02-27.09-3.32-26.11-7.58s16.54-10.87,29.66-7.84,21.06,15.31,20.08,19.57Z"/>
    </g>
    <g>
      <path class="st1" d="M626.65,314.69c1.73.25,3.58.8,4.6,2.22,1.18,1.64.91,3.87.68,5.89-1.19,10.33,1.12,22.44,10.14,27.61.85.49,1.77.92,2.46,1.62,2.57,2.6.79,6.94-1.11,10.07-1.77,2.92-6.87,2-8.64,4.92-1.36,2.25.57,8.4-1.47,10.07s-4.86,2.63-7.36,1.77c-1.52-.52-2.75-1.63-4.06-2.57-4.86-3.49-11.33-4.62-17.08-2.98-4.2-7.42-10.22-9.24-10.97-15.4-.94-7.74,7.14-8.54,6.8-11.57-.74-6.49-4.71-12.64-3.73-19.11,1.69-11.2,20.67-13.86,29.74-12.55Z"/>
      <path class="st1" d="M605.25,382.04c-2.96,1.23-5.4-4.07-8.6-3.97-7.04-1.38,1.2,14.19.1,21.23-.35,2.27-1.16,4.48-1.14,6.78.01.85.16,1.75.74,2.37,1,1.07,2.84.81,3.99-.09s1.83-2.26,2.66-3.47c1.13-1.66,2.64-3.13,4.52-3.81,1.84-.66,3.88-.52,5.78-1.01s3.83-2.03,3.63-3.98c-.19-1.93-1.53-3.74-1.85-5.73-.23-1.46-.03-2.98-.53-4.39-1.75-5.01-4.77-5.81-9.31-3.93Z"/>
    </g>
    <g>
      <g>
        <ellipse class="st2" cx="691.34" cy="461.72" rx="42.89" ry="26.4" transform="translate(-32.26 52.4) rotate(-4.24)"/>
        <path class="st6" d="M648.56,464.89c.78,9.55,9.35,16.04,17.68,19.25,12.84,4.88,27.35,4.67,40.43.85,10.41-3.25,21.62-9.27,25.62-19.97,4.01-11.64-6.05-21.15-16.12-25.06-16.81-6.64-37.06-5.45-52.96,3.28-7.76,4.4-15.29,12.09-14.64,21.65h0ZM648.56,464.89c-.68-9.57,6.8-17.32,14.5-21.89,11.98-7.07,26.43-9.45,40.18-7.93,11.36,1.41,23.99,5.83,29.85,16.44,6.27,11.95-2.71,23.87-13.12,29.55-16.2,8.88-36.69,10.11-53.84,3.35-8.29-3.38-16.83-9.94-17.57-19.51h0Z"/>
      </g>
      <path class="st4" d="M655.3,462.81c1.29,4.18,10.4-1.9,23.26-5.88s26.77-5.32,25.48-9.49c-1.29-4.18-17.3-9.61-30.16-5.63s-19.87,16.83-18.58,21Z"/>
    </g>
    <path class="st5" d="M412.33,578.7c24.82-35.09,68.52-55.18,111.25-54.8,32.38.18,64.03,12.61,89.16,32.72,8.3,6.72,16,14.12,23.02,22.08-13.54-12.55-28.25-23.96-44.65-32.42-59.23-32.05-134.55-18.58-178.77,32.42h0Z"/>
  </g>
</svg>