<?xml version="1.0" encoding="UTF-8"?>
<svg id="Layer_2" xmlns="http://www.w3.org/2000/svg" version="1.1" viewBox="0 0 1080 1080">
  <!-- Generator: Adobe Illustrator 30.1.0, SVG Export Plug-In . SVG Version: 2.1.1 Build 136)  -->
  <defs>
    <style>
      .st0 {
        fill: #684444;
      }

      .st1 {
        stroke: #000;
        stroke-miterlimit: 10;
      }

      .st2 {
        fill: #f2f2f2;
      }

      .st3 {
        fill: #c8c9b5;
      }

      .st4 {
        fill: #636363;
      }

      .st5 {
        fill: #686868;
      }

      .st6 {
        fill: #4c4c4c;
        opacity: .75;
      }

      .st7 {
        fill: #895858;
      }
    </style>
  </defs>
  <g>
    <path class="st2" d="M95.52,1068.79c39-197.42,129.9-397.01,158.42-622.72,42.65-337.56,513.82-340.2,564.22-39,51.18,305.87,114.55,548.38,276.63,687.3,162.08,138.92-405.8,95.05-449.67,65.81-43.87-29.25-102.36-258.17-194.98-85.82-92.62,172.35-365.59,85.82-365.59,85.82l10.97-91.4Z"/>
    <path class="st5" d="M95.52,1068.79c26.73-132.87,73.5-260.95,109.44-391.4,21.87-78.2,39.59-157.96,49.75-238.56,9.75-71.62,44.34-140.67,101.03-186.44,145.68-120.34,396.57-73.6,454.33,116.94,1.22,4.17,2.77,9,3.71,13.07,1,4.23,2.32,9.13,3.08,13.24,24.41,139.96,49.77,280.7,98.01,414.76,33.73,92.96,80.12,183.47,149.88,254.63,5,5.11,10.65,10.4,15.71,15.37,5.22,4.64,13.72,12.31,18.95,16.91,43.49,39.29,27.65,65.61-24.74,79.64-52.75,13.29-107.66,14.15-161.77,14.28-72.27-.84-144.65-5.57-216.06-16.96-13.36-2.3-26.75-4.76-39.76-8.66-4.32-1.4-8.74-2.75-12.55-5.33-3.75-2.65-6.9-5.99-9.8-9.47-29.7-34.99-67.3-141.4-118.4-139.82-22.85,1.28-39.67,22.19-51.76,39.65-10.26,14.89-17.58,31.61-28.35,46.17-15.98,21.96-36.88,40.17-60.62,53.31-55.94,30.67-122.16,35.22-184.65,29.94-27-2.38-53.82-6.75-80.22-12.91-8.8-2.08-17.57-4.31-26.22-6.96,0-.02,11.01-91.4,11-91.42h0ZM95.52,1068.79s-10.91,91.54-10.96,91.37c8.64,2.63,17.4,4.86,26.2,6.93,26.39,6.14,53.22,10.49,80.21,12.85,62.45,5.24,128.64.65,184.52-30.03,23.7-13.14,44.55-31.33,60.5-53.27,10.76-14.57,18.03-31.3,28.27-46.21,12.14-17.59,29.03-38.62,52.07-39.93,18.75-.69,34.07,12.83,45.7,26.09,26.56,31.03,42.93,69,65.33,102.85,5.06,7.35,10.38,14.89,17.67,20.16,3.69,2.49,8.1,3.84,12.32,5.2,30.43,8.54,62.03,12.08,93.34,15.82,89.69,9.13,180.53,13.59,270.39,4.41,56.31-6.54,150.03-25.23,72.13-90.9-91.72-78.89-148.11-189.39-186.95-302.22-44.37-129.52-68.18-264.72-91.79-399.2,0,0-.8-3.28-.8-3.28,0,0-1.59-6.56-1.59-6.56-.27-1.09-.51-2.19-.81-3.28,0,0-.96-3.24-.96-3.24,0,0-1.91-6.48-1.91-6.48-.33-1.08-.62-2.17-.97-3.23,0,0-1.12-3.19-1.12-3.19-77.24-226.46-411-232.57-518.11-27.13-17.04,31.86-27.7,66.91-32.9,102.61-2.39,16.04-5.37,37.98-7.94,53.63-1.9,9.99-5.27,30.55-7.22,40.02-6.14,30.05-13.25,62.79-20.99,92.51-37.32,148.81-93.15,293.16-123.63,443.72h0Z"/>
  </g>
  <ellipse class="st6" cx="537.92" cy="457.93" rx="205.53" ry="44.04"/>
  <ellipse cx="660.41" cy="454.42" rx="13.7" ry="17.38"/>
  <ellipse class="st1" cx="415.66" cy="454.42" rx="13.7" ry="17.38"/>
  <path d="M398.25,488.76c10.08-4.06,21.05-8.8,26.62-18.66,1.79-3.14,2.87-6.73,2.5-10.25,0,0,1.37.46,1.37.46-7.65,8.22-21.48,13.04-32.48,10.34-3.8-.95-7.46-2.79-10.15-5.64,0,0,.13-.15.13-.15,7.61,5.94,18.13,5.74,26.87,2.68,5.89-1.87,11.66-4.85,15.69-9.6,1.29,8.51-4.01,16.24-10.4,21.21-5.98,4.6-13.09,7.23-20.08,9.8,0,0-.07-.19-.07-.19h0Z"/>
  <path d="M657.62,489.42c-6.89-1.05-11.2-7.59-12.47-14.04-1.54-7.17-.33-14.58,1.38-21.61,0,0,.84,1.72.84,1.72,4.1,8.53,9.54,18.14,19.79,19.4,9.66,1.22,19.83.1,29.63-.19,0,0,.02.2.02.2-7.38,1.35-14.85,2.12-22.36,2.42-8.03.46-15.69-1.48-20.75-8.17-3.22-4-5.47-8.56-7.55-13.09,0,0,1.27-.12,1.27-.12-2.35,9.18-3.56,20,2.21,28.17,1.93,2.58,4.84,4.44,8.03,5.1,0,0-.04.2-.04.2h0Z"/>
  <path d="M668.07,467.99c8.88.76,15.74-4.56,21.38-10.83,0,0,.18.09.18.09-1.67,6.72-8.74,10.32-15.12,11.21-2.17.25-4.37.2-6.47-.27l.03-.2h0Z"/>
  <path d="M428.3,463.62c-10.82,12.44-29.32,20.61-45.7,15.92,0,0,.03-.2.03-.2,12.38.3,25.08-1.49,35.74-8.14,3.55-2.14,6.86-4.73,9.78-7.72l.15.14h0Z"/>
  <path class="st4" d="M380.04,552.73c-15.89,8.62-34.78,15.31-50.88,23.45-12.52,6.55-20.3,18.88-28.11,30.2-2.78,3.75-5.41,7.61-8.03,11.49,2.09-4.19,4.4-8.27,6.78-12.32,7.91-11.51,15.9-24.03,28.64-30.68,7.24-3.88,18.05-8.17,25.6-11.59,7.47-3.4,18.32-7.9,26-10.55h0Z"/>
  <path class="st4" d="M725.14,562.68s7.78,4.84,7.78,4.84c0,0,7.37,5.42,7.37,5.42,12.29,8.99,24.15,19.75,29.97,34.19.99,2.92,1.88,5.85,2.6,8.82-1.29-2.77-2.54-5.55-3.98-8.22-5.74-14.21-17.36-24.7-29.49-33.58-4.94-3.57-9.84-7.22-14.25-11.46h0Z"/>
  <path class="st4" d="M703.67,531.97c16.25,9.46,35.05,12.98,51.64,21.79,24.17,12.14,36.88,38.77,40.39,64.59,2.29,14.87,1.97,29.94.88,44.89-.27-14.91-.29-29.89-2.37-44.67-3.46-25.36-15.86-51.56-39.61-63.48-16.48-8.71-35.62-12.06-50.93-23.11h0Z"/>
  <path class="st4" d="M412.5,519.2c-13.84,10.78-30.88,16.18-47.35,21.45-16.35,5.34-33.13,11.03-46.54,22.12-20.25,16.76-29.55,42.79-34.46,67.9-1.95,8.45-3.45,17.01-5.07,25.55,1.01-8.63,2.14-17.25,3.6-25.85,6.85-35.79,21.92-67.7,57.47-82.18,23.84-10.44,50.32-14.63,72.36-29h0Z"/>
  <g>
    <path class="st7" d="M393.41,583.4c17.49-1.38,40.7-11.95,64.14-12.75,49.76-1.69,99.61-.66,149.26,3.08,15.84,1.19,32.09,2.62,47.33-1.85,8.19-2.41,22.53-2.55,31.06-2.93,46.11-2.06,68.13,23.17,76.39,29.36,11.69,8.77,9.65,13.58,13.63,27.64,4.44,15.72,8.42,31.56,11.92,47.52,1.09,4.97,2.13,10.2.66,15.07-2.78,9.2-13.53,13.69-23.14,13.71s-18.92,2.14-27.85,5.71c-17.2,6.88-25.59,8.72-44.25,13.03-15.15,3.5-30.93,3.47-46.12,6.76-13.52,2.93-26.36,8.43-39.84,11.55-16.67,3.86-33.96,3.98-51.07,3.85-41.43-.33-82.83-2.09-124.22-3.85-13.26-.56-26.59-1.14-39.59-3.82-10.53-2.17-20.73-5.71-30.89-9.24-14.99-5.2-11.32-9.24-26.31-14.44-5.09-1.77-10.3-3.6-14.45-7.03-4.47-3.68-7.35-8.9-10.04-14.02-10.68-20.3-24.7-30.21-21.9-52.98,1.64-13.33,7.52-25.6,14.76-36.75,5.47-8.43,22.79-14.81,33.27-15.55,29.26-2.06,32.38-.11,57.26-2.06Z"/>
    <path class="st0" d="M393.41,583.4c18.23-2.01,35.37-9.42,53.53-11.93,3.02-.47,6.06-.78,9.11-.95,27.43-1.21,54.89-1.46,82.35-.96,24.4.59,48.79,1.91,73.11,3.78,13.62.99,27.45,1.79,40.68-1.71,10.31-3.02,21.29-2.88,31.91-3.38,24.54-1.6,49.68,5.79,68.62,21.69,2.39,1.92,4.7,3.94,7,5.91,4.8,3.82,10.13,7.72,12.16,13.8,1.98,5.9,2.63,11.89,4.5,17.79,2.36,8.52,4.91,18.01,6.98,26.57,1.45,5.93,2.84,11.87,4.16,17.83,2.36,9.49,3.52,19.24-5.47,25.8-5.07,3.74-11.44,5.35-17.67,5.37-3.01.03-6.03.24-9.02.67-12.17,1.5-23.07,7.42-34.71,10.92-5.84,1.84-11.78,3.35-17.72,4.75-5.45,1.29-12.52,3-17.93,3.87-12.1,1.99-24.33,2.48-36.24,4.82-11.91,2.31-23.29,6.82-35.06,10.18-11.78,3.47-24.06,4.95-36.27,5.44-36.62.84-73.21-.83-109.8-2.1-21.37-1.44-52.15-.9-73.08-4.77-12.11-2.19-23.69-6.24-35.21-10.29-2.89-1.06-5.75-2.33-8.37-4.04-2.64-1.71-4.83-3.88-7.3-5.51-2.48-1.64-5.22-2.88-8.04-3.93-9.39-3.18-17.14-6.17-22.54-15.27-3.24-5.24-5.73-10.73-9.16-15.83-3.27-5.12-6.86-10.06-10.01-15.35-11-17.33-7.35-35.43,1.14-52.92,1.36-2.75,2.85-5.43,4.43-8.05,1.64-2.6,3.09-5.36,5.3-7.55,4.45-4.31,10.11-7.04,15.84-9.19,5.74-2.09,11.78-3.55,17.9-3.71,6.09-.38,12.19-.62,18.29-.73,12.2-.12,24.4.07,36.57-1h0ZM393.41,583.4c-18.24,1.66-36.59.48-54.83,2.07-6.1.23-12.05,1.75-17.73,3.89-5.6,2.18-11.18,4.97-15.47,9.23-2.13,2.14-3.51,4.9-5.08,7.45-1.53,2.62-2.98,5.3-4.28,8.04-5.1,10.8-8.75,23-7.11,34.98,1.71,12.19,9.86,21.9,16.31,32.03,10.85,17.08,9.52,23.79,30.96,30.51,2.89,1.07,5.74,2.36,8.35,4.09,2.62,1.74,4.8,3.9,7.29,5.5,2.49,1.62,5.24,2.86,8.07,3.89,11.47,4.03,23.02,8.07,34.96,10.22,20.61,3.66,51.66,3.53,72.87,4.74,24.37.97,48.75,1.78,73.13,2.17,24.22.2,48.99,1.46,72.47-5.45,11.67-3.33,23.1-7.86,35.18-10.21,15.07-2.94,30.36-3.01,45.21-6.61,14.76-3.26,29.72-7.14,43.67-13.02,5.73-2.23,11.7-3.88,17.81-4.74,5.98-1.04,12.2-.09,18.04-1.91,5.6-1.6,11.08-5.07,13.35-10.58,2.29-5.6.76-11.79-.5-17.53-2.63-11.9-5.53-23.74-8.69-35.51-1.36-5.32-3.6-12.43-4.67-17.72-.66-2.98-1.2-5.98-2.21-8.76-1.97-5.84-7.1-9.46-11.73-13.18-11.25-10.14-24.07-18.76-38.69-23.1-17.44-5.66-36.11-4.51-54.14-3.2-6.23.34-11.85,2.08-17.87,3.42-12.15,2.34-24.53,1.61-36.67.72-24.32-1.9-48.67-3.15-73.04-3.78-27.41-.82-54.87-.97-82.29-.09-3.04.14-6.07.41-9.09.84-18.19,2.25-35.35,9.67-53.58,11.59h0Z"/>
  </g>
  <g>
    <path class="st3" d="M383.15,595.54c-6.34,21.29-11.86,42.82-16.54,64.53-.49-25.48-1.86-50.33-4.55-75.67,6.27.06,16.65-.17,23.22-.46,0,0-.66,6.66-2.13,11.59Z"/>
    <path class="st3" d="M336.46,602.39c-6.34,21.29-11.86,42.82-16.54,64.53-.49-25.48-1.86-50.33-4.55-75.67,6.74-2.68,16.61-5.66,23.17-5.95,0,0-.61,12.15-2.08,17.09Z"/>
    <path class="st3" d="M462.98,584.33c-6.34,22.76-11.86,45.79-16.54,69-.49-27.25-1.86-53.81-4.55-80.91,5.93-1.18,16.46-2.2,23.17-2,0,0-.61,8.63-2.08,13.91Z"/>
    <path class="st3" d="M419.54,593.86c-6.34,21.29-11.86,42.82-16.54,64.53-.49-25.48-1.86-50.33-4.55-75.67,6.27.06,16.8-3.79,23.21-5.52,0,0-.65,11.72-2.12,16.66Z"/>
    <path class="st3" d="M582,583.56c6.34,21.29,11.86,42.82,16.54,64.53.49-25.48,1.74-49.23,4.44-74.57-6.27.06-16.54-1.27-23.1-1.56,0,0,.66,6.66,2.13,11.59Z"/>
    <path class="st3" d="M488.72,584.14c6.34,22.76,11.86,45.79,16.54,69,.49-27.25,1.68-56.16,4.38-83.26-5.93-1.18-16.29.16-22.99.35,0,0,.61,8.63,2.08,13.91Z"/>
    <path class="st3" d="M531.69,587.33c6.34,21.29,11.86,42.82,16.54,64.53.49-25.48,1.68-56.13,4.38-81.47-6.27.06-16.06,1.2-22.48-.53,0,0,.09,12.53,1.56,17.47Z"/>
    <path class="st3" d="M687.09,580.42c6.34,21.29,11.86,42.82,16.54,64.53.49-25.48,1.74-49.23,4.44-74.57-6.27.06-16.54-1.27-23.1-1.56,0,0,.66,6.66,2.13,11.59Z"/>
    <path class="st3" d="M734.03,596.89c6.34,21.29,11.86,42.82,16.54,64.53.49-25.48.51-44.24,3.2-69.59-4.18-3.33-15.93-14.15-22.5-14.44,0,0,1.29,14.56,2.76,19.49Z"/>
    <path class="st3" d="M636.01,589.44c6.34,21.29,11.86,42.82,16.54,64.53.49-25.48,1.35-57.39,4.04-82.73-6.42,2.15-14.51,3.31-22.09,3.52,0,0,.04,9.74,1.51,14.68Z"/>
    <path class="st3" d="M384.87,720.39c-2.58-22.06-4.31-44.22-5.18-66.42-4.87,25.02-10.61,48.19-17.63,72.69,6.19,1.02,16.8,5.9,23.22,7.31,0,0,.19-8.46-.41-13.58Z"/>
    <path class="st3" d="M346.5,699.49c-4.12-21.83-7.39-43.81-9.81-65.89-3.11,25.29-7.03,49.87-12.32,74.8,6.42,3.36,15.94,7.34,22.44,8.31,0,0,.64-12.15-.31-17.21Z"/>
    <path class="st3" d="M479.02,727.36c-6.34-22.76-11.86-45.79-16.54-69-.49,27.25-1.86,53.81-4.55,80.91,5.93,1.18,16.46,2.2,23.17,2,0,0-.61-8.63-2.08-13.91Z"/>
    <path class="st3" d="M433.59,724.61c-6.34-21.29-11.86-42.82-16.54-64.53-.49,25.48-4.3,52.64-6.99,77.98,6.27-.06,18.06,2.02,24.8,1.39,0,0,.2-9.9-1.27-14.83Z"/>
    <path class="st3" d="M610.12,723.2c6.34-21.29,11.86-42.82,16.54-64.53.49,25.48,1.66,48.43,4.35,73.77-6.22,1.23-16.61,6.25-23.18,6.54,0,0,.82-10.84,2.29-15.77Z"/>
    <path class="st3" d="M500.21,726.95c6.34-22.76,11.86-45.79,16.54-69,.49,27.25,1.68,56.16,4.38,83.26-5.93,1.18-16.29-.16-22.99-.35,0,0,.61-8.63,2.08-13.91Z"/>
    <path class="st3" d="M554.17,726.31c6.34-21.29,11.86-42.82,16.54-64.53.49,25.48,1.68,56.13,4.38,81.47-6.27-.06-16.06-1.2-22.48.53,0,0,.09-12.53,1.56-17.47Z"/>
    <path class="st3" d="M702.37,707.37c6.34-21.29,11.86-42.82,16.54-64.53.49,25.48,2.11,44.6,4.8,69.94-6.27-.06-16.9,5.89-23.47,6.18,0,0,.66-6.66,2.13-11.59Z"/>
    <path class="st3" d="M777.62,692.75c-5.9-21.41-10.97-43.06-15.2-64.86-1.02,25.47-1.53,49.24-4.75,74.52,5.63.68,14.38,0,21.08-3.03,0,0,.23-1.66-1.14-6.63Z"/>
    <path class="st3" d="M652.82,711.05c6.34-21.29,11.86-42.82,16.54-64.53.49,25.48,1.5,52.12,4.19,77.47-5.48,1.25-14.65,1.96-22.23,1.74,0,0,.04-9.74,1.51-14.68Z"/>
  </g>
  <path class="st0" d="M393.28,583.18c18.21-2.01,35.35-9.48,53.52-11.91,3.03-.46,6.08-.76,9.13-.92,27.43-1.13,54.9-1.35,82.36-.79,24.4.61,48.79,1.9,73.11,3.78,13.62.99,27.45,1.79,40.68-1.71,10.31-3.02,21.29-2.88,31.91-3.38,24.54-1.6,49.68,5.79,68.62,21.69,2.39,1.92,4.7,3.94,7,5.91,4.8,3.82,10.13,7.72,12.16,13.8,1.98,5.9,2.63,11.89,4.5,17.79,2.36,8.52,4.91,18.01,6.98,26.57,1.45,5.93,2.84,11.87,4.16,17.83,2.36,9.49,3.52,19.24-5.47,25.8-5.07,3.74-11.44,5.35-17.67,5.37-3.01.03-6.03.24-9.02.67-12.17,1.5-23.07,7.42-34.71,10.92-5.84,1.84-11.78,3.35-17.72,4.75-5.45,1.29-12.52,3.01-17.93,3.87-12.1,1.99-24.33,2.48-36.24,4.82-11.91,2.31-23.29,6.82-35.06,10.18-11.78,3.47-24.06,4.95-36.27,5.44-36.62.84-73.21-.83-109.8-2.1-21.36-1.44-52.16-.9-73.08-4.77-12.11-2.19-23.69-6.24-35.21-10.29-2.89-1.06-5.75-2.33-8.37-4.04-2.64-1.71-4.83-3.88-7.3-5.51-2.48-1.64-5.22-2.88-8.04-3.93-9.39-3.17-17.14-6.18-22.54-15.27-3.24-5.24-5.73-10.73-9.16-15.83-3.27-5.12-6.87-10.05-10-15.35-10.98-17.31-7.4-35.45,1.07-52.95,1.35-2.75,2.84-5.43,4.41-8.06,1.63-2.61,3.09-5.38,5.31-7.58,4.46-4.34,10.13-7.08,15.87-9.25,5.74-2.11,11.8-3.6,17.94-3.78,6.09-.39,12.19-.67,18.29-.78,12.2-.11,24.39.08,36.55-.98h0ZM393.31,583.62c-12.15,1.13-24.39,1-36.58,1.17-6.09.14-12.18.45-18.26.87-6.08.21-12.02,1.7-17.69,3.82-5.59,2.16-11.16,4.94-15.44,9.17-2.12,2.13-3.51,4.88-5.08,7.42-1.54,2.62-2.99,5.29-4.3,8.02-8.06,16.95-11.5,34.98-.84,51.68,4.67,7.8,10.36,15.13,14.69,23.2,2.83,5.3,5.59,10.8,10.14,14.78,6.96,6.13,16.85,6.78,24.46,11.91,2.62,1.74,4.8,3.9,7.29,5.5,2.49,1.62,5.24,2.86,8.07,3.89,11.47,4.03,23.02,8.07,34.96,10.22,20.61,3.66,51.66,3.53,72.87,4.74,36.53,1.27,73.14,2.94,109.68,2.1,12.14-.49,24.27-1.96,35.92-5.39,11.67-3.33,23.1-7.86,35.18-10.21,12.06-2.36,24.31-2.86,36.29-4.83,5.49-.79,12.42-2.66,17.83-3.85,5.93-1.4,11.82-2.89,17.62-4.72,11.68-3.53,22.69-9.47,34.95-10.97,3.05-.44,6.13-.65,9.22-.68,5.92-.01,11.99-1.55,16.78-5.07,8.36-6.06,7.13-15.32,4.9-24.28-1.32-5.95-2.7-11.88-4.15-17.8-1.95-8.55-4.68-17.99-6.96-26.52-1.83-5.75-2.58-12-4.47-17.67-1.97-5.84-7.1-9.46-11.73-13.18-2.33-1.99-4.61-3.99-6.97-5.89-18.72-15.68-43.35-22.93-67.62-21.36-10.61.51-21.34.34-31.59,3.33-13.45,3.57-27.55,2.75-41.18,1.76-24.32-1.88-48.67-3.17-73.04-3.78-27.41-.77-54.87-.88-82.28.08-3.03.15-6.06.43-9.07.87-18.18,2.34-35.34,9.71-53.59,11.62h0Z"/>
</svg>