<?xml version="1.0" encoding="UTF-8"?>
<svg xmlns="http://www.w3.org/2000/svg" version="1.1" viewBox="0 0 1080 1080">
  <!-- Generator: Adobe Illustrator 30.1.0, SVG Export Plug-In . SVG Version: 2.1.1 Build 136)  -->
  <defs>
    <style>
      .st0 {
        fill: #fcfcfc;
      }

      .st1 {
        stroke: #000;
        stroke-miterlimit: 10;
      }

      .st2 {
        fill: #e2e2e2;
      }

      .st3 {
        fill: #686868;
      }
    </style>
  </defs>
  <g id="Body">
    <g>
      <path class="st0" d="M432.15,852.53c19.96-39.38,40.56-73.64,53.38-110.3,13.28-37.95,59.66-38.04,78.34-6.52,18.67,31.52,46.61,80.92,56.35,95.65,12.23,18.51,30.44,41.23,58.7,81.45,30.08,42.81,135.5,26.18,135.84-18.46.56-74.2,49.89-498.58-74.97-651.04-107.47-131.22-320.4-134.28-421.92-10.87-50.1,60.9-53.6,248.91-56.35,295.65-2.75,46.74-2.75,158.7-5.5,210.87-2.08,39.46-.1,48.04,3.17,138.02.94,25.91,42.74,60.72,90.89,58.21,37.67-1.96,82.07-82.68,82.07-82.68Z"/>
      <path class="st3" d="M430.84,851.84c18.43-36.7,39.47-72.17,53.15-110.98,1.19-3.35,2.8-6.54,4.64-9.6,9.55-15.82,28.69-23.47,46.55-19.11,14.07,3.13,25.71,13.32,32.27,25.88,16.15,27.29,35.47,61.76,52,88.66,7.3,11.5,15.57,22.47,23.64,33.49,13.31,17.8,26.19,36.02,39.21,54.02,20.37,23.88,61.05,25.08,89.34,17.49,15.53-4.4,32.55-12.24,39.37-27.72,1.23-2.97,1.84-6.16,1.93-9.37.09-6.88.41-13.77.77-20.62,10.03-174.58,30.76-452.6-58.09-605.77-35.93-58.31-96.96-98.92-162.87-115.59-96.85-24.97-210.19,1.85-274.35,81.47-4.1,5.19-7.91,11.19-10.96,17.05-13.33,25.78-20.28,54.38-25.94,82.72-7.76,40.35-11.78,81.31-14.6,122.28-1.91,26.43-2.86,55.56-4.33,82.12-2.64,67.99-1.87,137.7-5.12,205.62-1.5,27.37.26,54.71,1.41,82.08,0,0,1.69,41.11,1.69,41.11.35,6.68-.12,13.39,2.61,19.67,7.94,18.47,26,31.4,44.04,39.12,13.92,5.78,29.32,8.69,44.37,7.48,0,0,1.2-.13,1.2-.13l.6-.07.59-.14c30.25-6.69,61.85-55.19,76.89-81.18h0ZM433.47,853.23c-15.47,26.63-39.61,63.04-66.45,78.31-6.08,3.51-13.39,5.58-20.39,5.45-13.95.27-27.92-2.58-40.78-7.92-20.49-8.39-46.35-27.89-48.35-51.56-.96-36.22-3.94-77.13-3.99-113.15.29-20.59,1.82-41.11,2.2-61.7,1.47-53.91,1.65-110.57,3.74-164.53,1.55-26.6,2.47-55.69,4.41-82.19,2.86-41.07,6.94-82.17,14.77-122.63,5.37-26.96,12.03-53.93,23.95-78.87,0,0,1.11-2.34,1.11-2.34l1.24-2.28c3.12-5.96,7.07-12.2,11.27-17.49,83.28-102.75,243.07-117.08,353.34-50.87,26.68,15.79,50.69,36.12,70.47,60.01,56.38,70.06,72.18,175.24,80.76,262.61,12.03,130.06,2.45,260.56-4.22,390.58-.13,14.87-12.09,26.5-24.45,32.91-32.72,17.43-93.06,18.59-115.82-15.26-11.83-16.82-23.97-33.38-36.21-49.92-8.14-11.1-16.41-22.05-23.81-33.7-12.41-20.03-29.62-50.29-41.72-70.99,0,0-10.39-17.74-10.39-17.74-3.31-5.92-7.11-11.19-12.35-15.43-18.64-15.42-47.04-12.38-59.89,8.77-1.69,2.81-3.18,5.77-4.29,8.88-4.63,12.94-10.04,25.69-16.07,38.04-12.02,24.74-25.66,48.49-38.1,73h0Z"/>
    </g>
  </g>
  <g id="Face">
    <path d="M358.3,378.66c-.07,55.84,25.34,79.79,57.21,79.79s51.22-24.39,58.2-79.79c1.59-12.64,15.12-9.32-51.01-26.42-74.71-19.33-64.34-23.49-64.4,26.42Z"/>
    <path class="st1" d="M692.37,375.85c.07,57.39-27.05,82.6-59.8,82.6s-51.64-25.66-58.81-82.6c-1.63-12.99-15.54-9.58,52.42-27.16,76.78-19.86,66.13-24.14,66.19,27.16Z"/>
    <ellipse class="st2" cx="434.04" cy="376.93" rx="12.69" ry="27.19" transform="translate(-46.96 691.74) rotate(-74.18)"/>
    <ellipse class="st2" cx="608.91" cy="375.23" rx="27.19" ry="12.69" transform="translate(-79.24 180.27) rotate(-15.82)"/>
    <path class="st3" d="M436.57,528.04c38.48-20.76,115.03-24.06,156.65-11.1,4.23,1.48,8.59,3.17,12.27,5.74,0,0-2.46-1.1-2.46-1.1-4.08-1.59-8.56-2.72-12.88-3.55-15.71-2.92-31.95-3.68-47.91-3.83-21.4-.17-42.81,1.1-64.01,4.04-14.15,2.05-28.19,4.85-41.66,9.8h0Z"/>
    <g>
      <path class="st0" d="M437.81,545.4c28.63-21.85-4.38-45.72-4.38-45.72"/>
      <path class="st3" d="M437.81,545.4c11.46-11.08,13.66-21.9,4.43-35.26-2.55-3.71-5.54-7.17-8.82-10.47,4.05,2.31,7.64,5.43,10.68,9.05,10.99,12.95,8.45,28.25-6.3,36.67h0Z"/>
    </g>
    <g>
      <path class="st0" d="M603.52,545.4c-28.63-21.85,4.38-45.72,4.38-45.72"/>
      <path class="st3" d="M603.52,545.4c-14.76-8.43-17.29-23.72-6.3-36.67,3.04-3.63,6.63-6.74,10.68-9.05-3.27,3.29-6.27,6.76-8.82,10.47-9.23,13.37-7.02,24.19,4.43,35.26h0Z"/>
    </g>
  </g>
</svg>