<?xml version="1.0" encoding="UTF-8"?>
<svg xmlns="http://www.w3.org/2000/svg" version="1.1" viewBox="0 0 1080 1080">
  <!-- Generator: Adobe Illustrator 30.1.0, SVG Export Plug-In . SVG Version: 2.1.1 Build 136)  -->
  <defs>
    <style>
      .st0 {
        fill: #fcfcfc;
      }

      .st1 {
        fill: #fff;
      }

      .st2 {
        stroke: #000;
        stroke-miterlimit: 10;
      }

      .st3 {
        fill: #686868;
      }
    </style>
  </defs>
  <g id="Body">
    <g>
      <path class="st0" d="M433.43,843.98c19.96-39.38,40.56-73.64,53.38-110.3,13.28-37.95,59.66-38.04,78.34-6.52,18.67,31.52,46.61,80.92,56.35,95.65,12.23,18.51,30.44,41.23,58.7,81.45,30.08,42.81,135.5,26.18,135.84-18.46.56-74.2,49.89-498.58-74.97-651.04-107.47-131.22-320.4-134.28-421.92-10.87-50.1,60.9-53.6,248.91-56.35,295.65-2.75,46.74-2.75,158.7-5.5,210.87-2.08,39.46-.1,48.04,3.17,138.02.94,25.91,42.74,60.72,90.89,58.21,37.67-1.96,82.07-82.68,82.07-82.68Z"/>
      <path class="st3" d="M432.11,843.28c18.43-36.7,39.47-72.17,53.15-110.98,1.19-3.35,2.8-6.54,4.64-9.6,9.55-15.82,28.69-23.47,46.55-19.11,14.07,3.13,25.71,13.32,32.27,25.88,16.15,27.29,35.47,61.76,52,88.66,7.3,11.5,15.57,22.47,23.64,33.49,13.31,17.8,26.19,36.02,39.21,54.02,20.37,23.88,61.05,25.08,89.34,17.49,15.53-4.4,32.55-12.24,39.37-27.72,1.23-2.97,1.84-6.16,1.93-9.37.09-6.88.41-13.77.77-20.62,10.03-174.58,30.76-452.6-58.09-605.77-35.93-58.31-96.96-98.92-162.87-115.59-96.85-24.97-210.19,1.85-274.35,81.47-4.1,5.19-7.91,11.19-10.96,17.05-13.33,25.78-20.28,54.38-25.94,82.72-7.76,40.35-11.78,81.31-14.6,122.28-1.91,26.43-2.86,55.56-4.33,82.12-2.64,67.99-1.87,137.7-5.12,205.62-1.5,27.37.26,54.71,1.41,82.08,0,0,1.69,41.11,1.69,41.11.35,6.68-.12,13.39,2.61,19.67,7.94,18.47,26,31.4,44.04,39.12,13.92,5.78,29.32,8.69,44.37,7.48,0,0,1.2-.13,1.2-.13l.6-.07.59-.14c30.25-6.69,61.85-55.19,76.89-81.18h0ZM434.74,844.67c-15.47,26.63-39.61,63.04-66.45,78.31-6.08,3.51-13.39,5.58-20.39,5.45-13.95.27-27.92-2.58-40.78-7.92-20.49-8.39-46.35-27.89-48.35-51.56-.96-36.22-3.94-77.13-3.99-113.15.29-20.59,1.82-41.11,2.2-61.7,1.47-53.91,1.65-110.57,3.74-164.53,1.55-26.6,2.47-55.69,4.41-82.19,2.86-41.07,6.94-82.17,14.77-122.63,5.37-26.96,12.03-53.93,23.95-78.87,0,0,1.11-2.34,1.11-2.34l1.24-2.28c3.12-5.96,7.07-12.2,11.27-17.49,83.28-102.75,243.07-117.08,353.34-50.87,26.68,15.79,50.69,36.12,70.47,60.01,56.38,70.06,72.18,175.24,80.76,262.61,12.03,130.06,2.45,260.56-4.22,390.58-.13,14.87-12.09,26.5-24.45,32.91-32.72,17.43-93.06,18.59-115.82-15.26-11.83-16.82-23.97-33.38-36.21-49.92-8.14-11.1-16.41-22.05-23.81-33.7-12.41-20.03-29.62-50.29-41.72-70.99,0,0-10.39-17.74-10.39-17.74-3.31-5.92-7.11-11.19-12.35-15.43-18.64-15.42-47.04-12.38-59.89,8.77-1.69,2.81-3.18,5.77-4.29,8.88-4.63,12.94-10.04,25.69-16.07,38.04-12.02,24.74-25.66,48.49-38.1,73h0Z"/>
    </g>
  </g>
  <g id="Face">
    <ellipse class="st2" cx="417.28" cy="370.11" rx="57.7" ry="101.11"/>
    <ellipse class="st2" cx="634.81" cy="370.11" rx="57.7" ry="101.11"/>
    <circle class="st1" cx="428.45" cy="323" r="31.02"/>
    <circle class="st1" cx="451.17" cy="377.19" r="12.83"/>
    <circle class="st1" cx="641.67" cy="323" r="31.02"/>
    <circle class="st1" cx="664.39" cy="377.19" r="12.83"/>
    <path class="st3" d="M428.45,547.95c21.04,30.82,60.51,42.1,96.24,40.87,36.31-1.21,72.9-14.35,98.57-40.87-11.29,14.79-26.97,26.04-43.94,33.57-48.12,21.78-122.86,17.03-150.86-33.57h0Z"/>
  </g>
</svg>